<?xml version="1.0" standalone="no"?>
<!DOCTYPE svg PUBLIC "-//W3C//DTD SVG 20010904//EN"
 "http://www.w3.org/TR/2001/REC-SVG-20010904/DTD/svg10.dtd">
<svg version="1.0" xmlns="http://www.w3.org/2000/svg"
 width="1920.000000pt" height="1920.000000pt" viewBox="0 0 1920.000000 1920.000000"
 preserveAspectRatio="xMidYMid meet">
<metadata>
Created by potrace 1.14, written by Peter Selinger 2001-2017
</metadata>
<g transform="translate(0.000000,1920.000000) scale(0.100000,-0.100000)"
fill="#000000" stroke="none">
<path d="M9456 18483 c-6 -14 34 -49 66 -59 32 -10 142 -76 151 -90 4 -7 25
-32 47 -56 22 -24 53 -63 67 -88 15 -25 30 -47 33 -50 23 -19 113 -221 125
-280 2 -8 9 -35 15 -60 10 -36 13 -833 15 -3840 l1 -3795 31 -90 c35 -105 129
-316 147 -330 7 -5 18 -20 25 -32 39 -75 231 -291 323 -366 26 -21 53 -43 60
-50 60 -58 230 -151 346 -190 40 -13 76 -27 79 -31 4 -3 21 -6 39 -6 18 0 35
-4 38 -8 2 -4 19 -9 38 -10 18 -1 69 -7 113 -12 153 -19 267 -8 289 28 13 21
-14 58 -69 92 -251 156 -313 207 -484 401 -71 80 -155 223 -176 299 -4 14 -11
30 -15 35 -5 6 -14 30 -21 55 -7 25 -14 50 -15 55 -8 24 -35 165 -41 210 -10
76 -6 185 12 335 3 25 7 59 9 75 3 17 6 44 9 60 3 17 11 64 17 105 7 41 17 83
22 93 5 10 12 29 14 42 19 105 225 545 325 693 16 23 29 45 29 48 0 8 152 207
175 229 11 11 34 38 50 60 17 21 38 48 48 58 21 21 38 61 43 97 1 14 6 45 10
70 5 25 8 570 9 1212 1 642 4 1171 8 1174 4 4 7 18 7 32 0 29 53 82 83 81 12
0 54 0 92 0 39 0 75 0 80 0 6 0 64 0 130 1 66 0 127 0 135 0 8 -1 53 1 98 2
46 2 86 0 88 -4 2 -3 17 -3 32 1 22 6 87 7 87 1 0 -6 47 -5 50 0 5 9 62 6 71
-3 3 -3 18 -2 32 2 22 6 87 7 87 1 0 -6 47 -5 50 0 5 9 62 6 71 -3 3 -3 18 -2
32 2 23 6 77 7 92 1 3 -1 10 -1 15 0 6 1 114 2 240 2 l230 0 31 38 30 38 0
596 -1 596 -33 32 -32 33 -813 1 c-727 1 -815 3 -842 18 -16 9 -37 16 -46 16
-17 0 -60 43 -77 75 -21 41 -25 133 -26 610 -1 454 0 491 17 508 15 15 53 23
82 17 5 -1 17 -1 25 -1 8 0 65 1 125 1 61 -1 117 0 125 0 8 0 35 0 60 0 25 0
52 0 60 0 8 0 35 0 60 0 25 0 52 0 60 0 8 0 62 0 120 0 58 0 112 0 120 0 8 0
35 0 60 0 25 0 52 0 60 0 8 0 35 0 60 0 25 0 52 -1 60 0 8 0 60 0 115 0 179 0
198 0 206 6 5 3 9 0 9 -6 0 -6 5 -8 11 -4 6 3 35 6 65 5 30 -1 62 -1 72 -1 9
0 64 0 122 0 58 0 112 0 120 0 29 0 105 -1 115 -2 6 0 15 1 20 2 32 8 61 -5
104 -47 27 -27 71 -70 100 -97 28 -27 51 -53 51 -58 0 -4 5 -8 12 -8 7 0 31
-18 53 -40 56 -55 76 -57 117 -12 l34 38 -1 697 0 697 -35 33 -36 32 -2172 0
c-1693 0 -2173 -3 -2176 -12z"/>
<path d="M7640 18432 c-27 -8 -50 -35 -50 -56 0 -21 54 -60 110 -80 76 -27
246 -175 327 -284 16 -20 36 -46 47 -57 36 -38 175 -348 181 -402 1 -15 8 -50
14 -78 5 -27 13 -61 16 -75 2 -13 7 -54 11 -90 3 -36 9 -81 14 -100 10 -39 10
-38 11 -175 1 -135 -9 -305 -20 -357 -5 -24 -12 -63 -15 -88 -4 -25 -12 -69
-20 -97 -8 -29 -12 -53 -9 -53 3 0 0 -7 -7 -15 -7 -8 -10 -15 -6 -15 10 0 -39
-121 -89 -215 -25 -49 -62 -120 -80 -157 -56 -111 -208 -315 -310 -418 -34
-34 -115 -183 -115 -212 0 -8 -3 -18 -7 -21 -10 -10 -17 -82 -16 -152 1 -33 3
-532 5 -1110 3 -935 0 -1114 -16 -1190 -3 -11 -5 -25 -5 -31 -3 -32 -92 -96
-155 -111 -12 -2 -382 -5 -824 -6 l-804 -2 -31 -36 -32 -36 0 -595 0 -594 25
-31 c28 -33 80 -59 80 -40 0 8 3 8 8 2 4 -6 55 -10 117 -10 62 0 113 4 117 10
5 7 8 7 8 0 0 -11 132 -11 149 0 6 3 11 3 11 -2 0 -4 264 -8 588 -8 l587 0 64
-32 c87 -44 114 -89 117 -193 1 -41 3 -77 4 -80 1 -3 1 -9 0 -15 -7 -27 -6
-96 2 -101 4 -3 4 -13 0 -22 -11 -21 -10 -102 1 -119 5 -7 4 -13 -1 -13 -7 0
-9 -74 -2 -90 1 -3 1 -9 0 -15 -7 -25 -6 -102 1 -122 5 -12 4 -25 -1 -28 -7
-4 -7 -56 0 -90 1 -5 1 -13 0 -17 -7 -25 -3 -128 5 -128 6 0 5 -4 -1 -8 -12
-7 -13 -56 -1 -68 3 -4 1 -16 -5 -28 -6 -11 -11 -22 -10 -23 9 -14 -3 -33 -25
-40 -33 -10 -1594 -9 -1668 1 -27 4 -70 12 -95 17 -25 6 -52 12 -60 14 -8 1
-35 8 -60 15 -25 7 -49 13 -55 14 -23 4 -105 39 -105 45 0 3 -14 12 -30 19
-17 8 -53 36 -82 63 -28 27 -72 62 -97 79 -42 27 -47 28 -63 13 -10 -9 -18
-13 -18 -9 0 10 -26 -17 -27 -28 -1 -5 -7 -12 -14 -16 -14 -9 -20 -68 -8 -76
5 -3 7 -10 3 -15 -11 -19 -14 -58 -4 -64 6 -4 7 -11 3 -18 -9 -15 -10 -366 -1
-394 4 -12 3 -25 -2 -28 -5 -3 -6 -18 -3 -33 3 -15 5 -31 4 -37 -6 -56 -5
-104 1 -122 4 -13 4 -23 0 -23 -4 0 -7 -23 -7 -50 0 -28 3 -50 8 -50 4 0 5 -6
0 -12 -10 -17 -10 -49 0 -70 4 -10 4 -18 -1 -18 -12 0 -9 -70 3 -70 7 0 7 -3
0 -8 -12 -9 -13 -182 -1 -182 5 0 4 -6 -2 -13 -6 -7 -7 -18 -3 -26 5 -8 6 -25
1 -40 -9 -35 -3 -50 35 -87 l33 -30 1681 1 c924 0 1683 4 1687 7 4 4 14 4 23
0 9 -5 179 -7 379 -7 324 1 365 3 382 18 32 27 29 37 -44 117 -13 14 -33 32
-45 40 -24 16 -62 49 -123 107 -49 47 -100 145 -103 200 -2 24 -5 47 -9 50 -3
3 -1 14 4 24 7 12 7 20 0 24 -6 4 -7 11 -3 18 10 17 10 57 -1 57 -6 0 -5 5 2
12 7 7 8 17 1 30 -5 10 -6 18 -1 18 4 0 8 9 8 20 0 11 -3 20 -6 20 -9 0 -6 32
3 47 4 6 3 15 -3 18 -8 5 -8 11 0 20 8 10 8 15 0 20 -8 5 -8 10 0 20 8 10 8
15 0 20 -7 4 -8 11 -1 18 12 15 12 29 0 44 -7 7 -6 14 1 18 7 4 7 12 0 26 -8
13 -7 19 0 19 7 0 8 6 0 19 -5 11 -7 22 -2 25 9 5 8 53 -1 63 -4 3 -2 12 4 19
7 8 7 14 -1 19 -6 4 -7 12 -1 24 5 9 6 23 2 30 -5 7 -5 30 -1 52 4 22 3 39 -2
39 -5 0 -4 9 2 20 8 14 8 20 0 20 -8 0 -8 6 0 20 7 13 7 20 1 20 -7 0 -7 9 -1
25 6 15 6 26 0 30 -7 4 -6 13 0 26 7 12 7 19 1 19 -7 0 -7 8 -1 24 5 13 6 26
4 29 -10 10 -11 42 -3 59 6 10 5 19 -1 23 -7 4 -7 13 0 26 8 13 7 19 0 19 -6
0 -8 4 -5 10 8 13 12 90 5 90 -3 0 -6 9 -6 20 0 11 4 20 8 20 5 0 4 9 -2 19
-7 14 -7 22 0 26 6 4 7 12 3 18 -9 15 -9 49 1 65 4 6 3 12 -2 12 -10 0 -9 30
2 48 4 6 4 12 -1 12 -4 0 -8 16 -8 35 0 19 4 35 8 35 4 0 3 8 -2 18 -6 11 -6
24 0 35 6 9 6 17 2 17 -4 0 -8 11 -8 25 0 14 3 25 7 25 4 0 3 14 -2 30 -6 20
-5 30 2 30 7 0 7 5 1 13 -5 6 -8 23 -6 37 2 14 3 31 3 38 0 6 0 19 0 27 0 8 0
22 0 30 0 8 0 22 0 30 0 8 0 23 0 33 0 18 0 121 0 137 0 6 -1 21 -3 35 -2 14
1 31 6 38 6 7 6 12 0 12 -6 0 -8 12 -6 28 2 15 4 32 4 37 -6 95 -4 175 2 175
4 0 5 5 1 12 -10 16 -11 118 0 118 5 0 4 6 0 13 -11 15 -11 67 -1 85 5 6 4 12
-1 12 -10 0 -9 30 2 48 4 6 4 12 -1 12 -10 0 -9 182 1 198 4 7 4 12 -1 12 -4
0 -7 39 -5 87 1 49 2 93 2 98 0 6 -1 58 -3 118 -1 59 2 107 6 107 5 0 5 5 1
12 -4 7 -8 994 -9 2193 -1 1200 -5 2186 -9 2193 -4 7 -5 12 -2 12 3 0 -1 18
-9 40 -8 22 -14 41 -14 43 0 1 -5 16 -11 32 -7 17 -13 37 -15 47 -2 9 -11 31
-21 50 -10 18 -17 36 -16 41 1 4 -3 7 -9 7 -5 0 -7 5 -4 10 3 6 1 10 -4 10 -6
0 -11 8 -11 18 0 10 -8 29 -17 42 -10 14 -17 27 -16 30 1 3 -5 20 -13 39 -8
18 -14 37 -14 42 0 5 -4 9 -10 9 -5 0 -10 7 -10 15 0 8 -7 23 -15 32 -8 10
-15 22 -14 26 0 5 -11 19 -25 32 -13 12 -22 26 -18 30 4 3 -1 11 -11 16 -9 6
-17 15 -17 20 0 11 -55 85 -82 110 -10 9 -15 19 -11 23 3 3 -1 6 -9 6 -9 0
-18 6 -21 14 -7 17 -182 166 -196 166 -6 0 -11 5 -11 10 0 6 -6 10 -12 10 -7
0 -43 20 -80 44 -38 25 -68 43 -68 40 0 -2 -9 4 -20 14 -12 9 -24 17 -28 18
-8 1 -59 21 -87 34 -32 15 -201 60 -227 60 -44 0 -126 7 -134 13 -11 6 -164 6
-184 -1z"/>
<path d="M5888 7985 c-2 -2 -16 -5 -33 -8 -105 -18 -357 -115 -407 -156 -133
-111 -235 -216 -302 -311 -50 -71 -106 -176 -106 -199 0 -6 -4 -11 -10 -11 -5
0 -10 -7 -10 -16 0 -8 -5 -25 -12 -37 -7 -12 -14 -31 -16 -42 -6 -30 -10 -50
-12 -50 -9 0 -13 -86 -11 -260 2 -115 5 -823 8 -1573 l4 -1362 -30 -28 c-16
-15 -42 -36 -57 -48 l-28 -21 20 -24 19 -24 560 0 560 0 23 23 c27 28 20 40
-39 74 -22 12 -40 31 -44 45 -3 14 -6 311 -6 661 l0 636 27 24 26 25 326 0
c217 0 336 -4 355 -12 15 -6 32 -23 37 -37 7 -17 9 -255 8 -664 -3 -740 6
-680 -104 -680 -52 0 -68 -4 -90 -24 l-28 -23 20 -24 19 -24 612 1 613 0 27
22 28 22 -29 23 c-16 12 -43 33 -58 47 l-29 25 0 1939 0 1940 28 26 c15 14 30
27 33 28 27 6 40 18 40 37 0 52 35 50 -944 51 -501 1 -928 4 -948 7 -20 3 -38
4 -40 2z m833 -853 c19 -19 19 -31 17 -508 -3 -464 -4 -490 -22 -511 -18 -20
-28 -21 -200 -23 -530 -5 -522 -5 -546 40 -7 14 -11 141 -11 375 l1 355 26 43
c33 52 145 168 156 161 4 -3 8 -1 8 4 0 5 28 21 63 36 34 15 68 30 76 34 8 4
103 9 213 10 182 2 200 1 219 -16z"/>
<path d="M10110 7983 c0 -4 -408 -7 -907 -6 -500 1 -918 0 -929 -2 -39 -8 -41
-65 -3 -65 17 0 50 -29 102 -90 9 -11 15 -20 12 -20 -2 0 6 -11 19 -23 19 -19
79 -174 81 -209 0 -3 3 -10 8 -14 4 -4 7 -746 6 -1648 -1 -1551 -2 -1646 -19
-1728 -16 -78 -24 -94 -67 -145 -59 -72 -90 -100 -125 -115 -28 -13 -48 -45
-48 -79 0 -36 42 -45 240 -51 52 -2 100 -7 107 -11 6 -4 14 -4 16 0 6 10 919
9 934 0 5 -4 13 -4 16 -1 3 4 79 8 169 10 306 8 386 12 397 18 6 4 11 3 11 -3
0 -7 8 -7 25 -1 13 5 26 6 29 2 2 -4 30 -6 63 -4 32 1 94 5 138 7 118 6 135 9
205 44 36 17 70 31 77 31 7 0 13 5 13 10 0 6 7 10 16 10 9 0 49 33 88 73 100
100 149 163 229 293 32 52 107 235 114 277 3 18 9 38 15 44 17 21 24 201 14
393 -2 52 -7 172 -11 265 -7 163 -8 184 -19 232 -13 58 -96 181 -146 215 -14
9 -47 38 -75 62 -27 25 -53 46 -57 46 -25 0 -31 146 -6 161 35 22 53 37 83 69
117 124 150 179 184 300 20 70 21 98 20 447 l-1 372 -38 76 c-21 42 -39 78
-39 80 -20 65 -56 110 -191 245 -147 146 -178 173 -218 194 -17 9 -32 19 -34
23 -5 12 -76 56 -133 84 -27 13 -52 26 -55 29 -6 6 -131 67 -178 87 -42 18
-132 29 -132 16z m-302 -809 c15 -4 30 -7 35 -6 4 1 7 -3 7 -10 0 -6 3 -9 6
-5 7 6 100 -56 125 -84 8 -10 24 -37 33 -61 10 -24 22 -52 27 -63 7 -18 36
-114 46 -155 6 -22 4 -111 -2 -140 -3 -14 -10 -45 -15 -70 -9 -46 -40 -136
-53 -157 -4 -6 -34 -30 -67 -52 -91 -63 -173 -81 -357 -81 l-151 0 -36 42 -36
42 0 366 0 366 38 36 c25 25 48 38 72 40 63 6 300 0 328 -8z m-18 -1676 c0 -5
8 -8 18 -8 89 0 245 -167 257 -275 3 -27 9 -63 12 -80 18 -93 -14 -259 -64
-334 -17 -25 -19 -30 -22 -51 0 -5 -7 -10 -15 -10 -8 0 -21 -6 -28 -13 -23
-23 -101 -65 -169 -90 -59 -23 -79 -25 -200 -23 -124 2 -137 4 -171 27 l-38
24 0 373 0 373 44 47 44 47 166 0 c91 0 166 -3 166 -7z"/>
<path d="M1816 7958 c-32 -24 -36 -77 -7 -95 10 -6 37 -40 61 -75 24 -35 46
-65 50 -68 12 -9 62 -113 76 -160 12 -38 14 -455 14 -2606 0 -2265 2 -2566 15
-2598 16 -37 71 -132 90 -153 5 -6 21 -26 35 -44 86 -113 208 -207 249 -191
42 16 46 31 48 181 1 145 10 354 18 421 2 19 7 71 10 115 4 44 9 89 13 100 6
22 9 30 15 60 3 11 17 54 32 95 15 41 33 90 39 108 6 17 14 32 18 32 5 0 8 6
8 14 0 23 93 173 125 201 6 6 22 30 36 55 14 25 31 54 37 65 12 20 33 71 37
90 2 6 12 43 24 83 12 40 19 77 16 82 -3 6 -1 10 5 10 6 0 9 4 5 10 -3 5 -6
379 -6 832 l-1 823 24 22 c12 12 43 42 68 66 82 79 32 74 644 73 526 -1 550
-1 567 17 16 18 18 50 18 370 1 347 1 351 -21 374 l-21 23 -591 0 c-584 0
-590 0 -621 21 -61 42 -65 64 -66 364 -1 149 2 284 6 300 11 42 35 87 56 105
9 8 26 22 36 31 19 16 54 35 105 59 21 10 156 13 588 14 309 1 571 -2 582 -7
12 -4 66 -53 121 -109 93 -95 137 -123 152 -97 3 4 5 223 5 486 0 465 -1 478
-20 498 -20 20 -32 20 -1344 21 -1291 1 -1324 0 -1350 -18z"/>
<path d="M11621 7967 c-6 -6 -11 -7 -11 -2 0 4 -9 -2 -20 -15 -20 -23 -21 -33
-17 -474 4 -430 8 -506 29 -532 15 -20 46 -4 53 28 12 52 148 166 210 175 11
2 38 10 60 19 33 13 94 16 380 15 319 0 416 -4 439 -18 5 -4 24 -7 42 -8 18
-2 37 -6 43 -9 6 -4 20 -9 31 -11 11 -2 33 -13 49 -24 16 -12 34 -21 39 -21
12 0 112 -99 112 -111 0 -4 6 -14 14 -21 21 -21 43 -69 72 -154 36 -107 36
-220 1 -263 -7 -8 -11 -16 -9 -18 18 -25 -75 -122 -166 -172 -41 -22 -88 -43
-105 -46 -18 -4 -41 -8 -52 -10 -11 -2 -210 -4 -443 -4 l-423 -1 -24 -24 -25
-25 1 -349 0 -349 27 -24 c40 -35 70 -50 77 -39 4 6 11 7 18 3 6 -3 52 -8 101
-9 212 -6 266 -9 266 -15 0 -3 35 -5 78 -4 42 1 97 -3 122 -7 25 -5 53 -10 63
-11 9 -1 17 -6 17 -11 0 -5 3 -6 7 -3 3 4 12 2 20 -4 7 -6 13 -9 13 -6 0 6 67
-15 105 -32 11 -5 50 -24 87 -41 88 -40 156 -95 216 -174 47 -63 49 -67 46
-123 -7 -100 -14 -137 -37 -183 -42 -83 -61 -107 -101 -133 -61 -38 -241 -97
-321 -104 -79 -8 -522 -7 -665 2 -189 10 -237 20 -278 56 -18 16 -39 29 -47
29 -8 0 -15 8 -15 18 0 20 -54 74 -64 65 -3 -4 -6 -2 -6 4 0 5 -17 10 -37 9
l-38 -1 -1 -280 c-1 -154 -4 -365 -8 -470 -8 -185 -7 -191 13 -212 12 -13 33
-26 46 -29 14 -3 25 -10 25 -14 0 -4 15 -5 33 -3 36 5 38 5 85 0 18 -2 35 0
38 5 3 4 15 4 27 0 19 -7 83 -8 97 -2 3 1 9 2 15 0 36 -7 85 -6 85 3 0 5 7 4
15 -3 12 -10 15 -10 15 1 0 9 3 10 8 4 6 -9 66 -12 97 -5 6 1 14 2 20 0 36 -7
85 -6 85 3 0 5 7 4 15 -3 12 -10 15 -10 15 1 0 9 3 10 8 4 6 -9 66 -12 97 -5
6 1 14 2 20 0 36 -7 85 -6 85 3 0 5 7 4 15 -3 12 -10 15 -10 15 1 0 9 3 10 8
4 7 -11 70 -14 87 -4 14 8 313 4 321 -4 4 -4 13 -2 21 4 10 9 13 8 13 -1 0 -8
4 -9 13 -4 15 11 38 11 55 1 6 -5 12 -5 12 0 0 9 97 9 106 1 3 -3 19 -2 37 2
18 4 41 5 52 3 28 -6 37 -6 65 2 14 3 32 7 40 8 26 4 94 29 108 40 8 6 23 13
35 14 11 2 57 21 102 43 78 37 155 99 198 160 46 66 168 258 179 282 7 16 16
28 20 28 5 0 8 8 8 18 0 10 4 22 10 28 31 31 112 302 135 449 3 17 8 46 11 65
4 19 7 55 7 80 0 71 -12 280 -17 288 -2 4 -7 44 -11 90 -9 102 -8 99 -27 142
-17 38 -40 64 -82 95 -16 11 -34 26 -42 33 -8 7 -14 11 -14 7 0 -3 -11 5 -25
19 -14 14 -31 29 -39 33 -17 10 -26 104 -14 150 5 18 34 56 73 95 36 34 80 89
97 121 17 31 34 57 38 57 14 0 49 105 59 175 13 102 10 445 -4 507 -13 52 -40
190 -55 278 -45 253 -105 406 -194 494 -54 54 -127 115 -155 130 -9 5 -34 24
-57 43 -23 18 -46 33 -53 33 -6 0 -11 4 -11 9 0 5 -8 11 -17 14 -10 3 -47 22
-83 41 -55 30 -109 55 -130 60 -3 1 -10 4 -15 8 -6 3 -31 9 -55 13 -25 3 -58
10 -75 14 -48 12 -1622 10 -1634 -2z"/>
<path d="M14700 7972 c-53 -18 -51 -56 4 -90 24 -15 52 -40 63 -57 11 -16 33
-37 49 -45 16 -8 34 -22 41 -30 10 -12 12 -435 13 -1907 l0 -1892 -22 -21
c-16 -15 -35 -20 -77 -20 -91 0 -132 -34 -94 -76 17 -18 36 -19 631 -19 561 1
614 2 632 18 11 9 20 21 20 27 0 5 -22 26 -50 46 l-50 36 0 86 c-1 48 -1 391
-1 762 l1 675 22 17 c12 9 26 14 30 12 4 -3 8 -2 8 3 0 4 271 8 602 7 494 -1
607 2 626 13 l22 13 0 365 0 364 -22 15 c-20 14 -97 16 -633 16 -601 0 -612 0
-633 20 -12 12 -22 24 -22 28 -1 39 -1 488 -1 633 l1 186 25 13 c20 11 143 14
623 14 328 1 609 -3 624 -7 14 -5 37 -24 50 -43 13 -18 37 -41 54 -49 17 -8
39 -25 47 -38 33 -51 45 -57 116 -57 108 0 101 -31 101 443 l0 406 -27 18
c-15 10 -48 41 -75 68 l-48 50 -1317 1 c-725 0 -1325 -1 -1333 -4z"/>
</g>
</svg>
